<?xml version="1.0" standalone="no"?>
<!DOCTYPE svg PUBLIC "-//W3C//DTD SVG 20010904//EN"
 "http://www.w3.org/TR/2001/REC-SVG-20010904/DTD/svg10.dtd">
<svg version="1.0" xmlns="http://www.w3.org/2000/svg"
 width="671.000000pt" height="457.000000pt" viewBox="0 0 671.000000 457.000000"
 preserveAspectRatio="xMidYMid meet">
<metadata>
Created by potrace 1.16, written by Peter Selinger 2001-2019
</metadata>
<g transform="translate(0.000000,457.000000) scale(0.100000,-0.100000)"
fill="#000000" stroke="none">
<path d="M3208 3879 c-10 -5 -18 -17 -18 -24 0 -13 -88 -15 -646 -15 l-646 0
-29 -29 -29 -29 0 -911 0 -911 28 0 c22 0 34 9 55 41 15 22 24 46 20 52 -3 7
-3 9 2 5 4 -4 27 10 51 31 46 41 132 78 200 88 36 5 44 11 63 45 11 22 21 42
21 44 0 2 -55 4 -123 4 -82 0 -127 4 -135 12 -17 17 -17 1369 0 1386 17 17
759 17 776 0 17 -17 17 -1369 0 -1386 -8 -8 -58 -12 -159 -12 -125 0 -148 -2
-153 -16 -14 -36 -7 -44 37 -44 87 0 125 -49 269 -339 116 -234 156 -284 271
-339 111 -53 298 -92 516 -108 103 -8 138 -26 126 -65 -4 -12 -2 -19 8 -19 41
0 119 -34 148 -64 25 -27 41 -35 75 -38 l44 -3 0 137 0 138 71 0 c39 0 78 4
88 9 10 6 31 12 47 14 24 3 30 9 32 36 l3 32 132 -3 132 -3 3 -42 3 -43 280 0
c285 0 309 3 336 39 25 35 28 154 19 861 -3 234 -5 638 -6 898 l0 474 -29 29
-29 29 -676 0 c-587 0 -676 2 -676 15 0 8 -9 19 -19 25 -26 13 -460 13 -483
-1z m1631 -233 c12 -25 12 -170 5 -952 -7 -705 -12 -926 -21 -935 -10 -10
-142 -13 -554 -13 -297 -1 -544 1 -548 4 -4 3 -12 21 -18 40 l-11 35 -1 -37
c-1 -38 -1 -38 -44 -38 l-44 0 -12 85 c-6 46 -18 103 -26 126 -8 23 -15 57
-15 76 0 29 5 36 32 48 18 7 37 10 43 7 5 -3 3 5 -6 18 -14 21 -62 57 -79 59
-3 1 -6 -11 -5 -26 0 -22 -8 -32 -40 -49 -45 -25 -84 -30 -86 -11 -1 6 -1 29
1 50 l2 39 -27 -18 c-57 -38 -70 -115 -34 -206 32 -80 49 -140 49 -173 l0 -30
-201 5 c-184 5 -202 7 -215 24 -12 17 -14 163 -14 947 0 849 1 928 17 940 20
18 678 26 1373 19 l465 -5 14 -29z"/>
<path d="M3333 3595 c-3 -9 -20 -22 -38 -29 -29 -13 -33 -18 -33 -55 0 -23 -3
-50 -7 -60 -4 -13 4 -29 26 -50 17 -18 34 -29 38 -25 3 4 0 9 -7 11 -6 3 -10
9 -6 14 3 5 -2 9 -10 9 -26 0 -18 36 9 48 39 18 65 14 102 -14 24 -18 42 -25
61 -21 14 3 32 3 39 0 15 -6 17 -35 4 -48 -5 -6 -7 -23 -4 -40 10 -49 21 -2
22 92 1 93 -17 140 -59 150 -14 3 -30 10 -37 15 -7 5 -21 7 -32 3 -10 -3 -22
-1 -26 5 -9 15 -35 12 -42 -5z"/>
<path d="M4307 3574 c-41 -39 -50 -76 -17 -67 44 12 92 -8 134 -54 22 -25 40
-50 38 -56 -2 -5 12 -38 29 -73 32 -61 34 -64 78 -70 58 -8 96 -28 116 -58 14
-21 19 -23 45 -13 23 9 30 18 30 37 0 16 10 36 26 49 23 20 26 29 21 67 -3 30
0 47 9 55 18 15 18 43 0 59 -8 6 -20 28 -27 48 -16 52 -27 62 -63 62 -21 0
-40 8 -55 24 -21 22 -28 23 -174 24 l-153 1 -37 -35z"/>
<path d="M3367 3144 c-44 -27 -62 -46 -82 -87 -25 -51 -25 -54 -10 -104 16
-54 35 -78 35 -46 1 11 8 5 20 -18 l19 -37 163 -31 c90 -17 167 -31 171 -31 4
0 3 9 -3 21 -7 11 -10 23 -8 25 3 2 32 7 66 10 l62 7 2 -44 c1 -24 2 -55 2
-69 1 -23 5 -25 48 -25 27 0 48 2 48 5 0 3 -9 23 -20 45 -11 22 -20 59 -20 85
-1 53 -33 138 -83 212 -45 68 -63 84 -116 103 -54 19 -121 21 -103 3 19 -19
15 -66 -7 -78 -11 -5 -40 -10 -65 -10 -38 0 -48 4 -63 26 -14 21 -14 29 -4 46
20 32 9 30 -52 -8z"/>
<path d="M3565 2653 c-33 -5 -105 -72 -105 -97 0 -9 12 -21 28 -27 38 -14 123
-107 121 -133 -4 -51 -4 -51 61 -16 14 8 37 20 51 27 21 11 28 22 31 54 2 23
-2 48 -9 58 -7 9 -13 22 -13 29 0 19 -64 82 -84 82 -9 0 -19 7 -22 15 -4 8
-11 14 -18 14 -6 -1 -24 -4 -41 -6z"/>
<path d="M4247 2623 c-17 -3 -31 -13 -36 -27 -5 -12 -16 -28 -25 -35 -18 -15
-23 -91 -6 -91 6 0 10 9 10 19 0 29 10 29 58 5 23 -12 38 -24 32 -26 -13 -4
-3 -38 11 -38 5 0 9 9 9 21 0 15 5 20 23 17 18 -2 21 -8 19 -33 -5 -44 -18
-54 -83 -61 -53 -6 -59 -9 -59 -30 0 -13 5 -35 12 -49 10 -23 17 -25 69 -25
52 0 60 3 83 31 21 25 26 41 26 85 0 37 4 53 11 49 6 -4 8 -22 4 -45 -4 -21
-2 -41 3 -44 13 -8 52 68 43 83 -5 7 -6 23 -3 36 8 44 -17 88 -71 128 -50 36
-65 40 -130 30z"/>
<path d="M3374 2498 c-24 -27 -37 -58 -25 -58 5 0 11 5 13 11 5 15 84 -5 109
-27 36 -33 66 -99 61 -135 l-5 -34 22 27 c11 14 21 37 21 50 -1 35 -34 99 -68
132 -17 16 -30 32 -28 35 2 3 -6 7 -17 7 -12 1 -31 5 -42 8 -14 5 -27 0 -41
-16z"/>
<path d="M2249 2863 c-80 -41 -97 -54 -115 -88 -11 -22 -30 -56 -42 -75 -41
-65 -25 -162 42 -249 20 -26 26 -47 26 -82 0 -57 18 -79 66 -79 19 0 49 -7 66
-16 26 -14 37 -14 69 -4 56 19 108 67 135 123 21 47 22 51 6 83 -12 27 -13 38
-4 59 15 32 39 42 63 27 27 -17 29 -16 29 21 0 18 7 55 16 81 11 31 15 67 12
103 -6 75 -36 103 -111 103 -35 0 -62 7 -82 20 -44 29 -73 25 -176 -27z"/>
<path d="M920 1959 c0 -93 -3 -138 -10 -134 -6 4 -28 34 -49 67 -21 33 -41 56
-44 51 -4 -6 18 -46 48 -89 l55 -79 -1 -247 c0 -137 -2 -248 -5 -248 -2 0 -22
36 -44 80 -33 65 -40 90 -40 137 0 57 -14 65 -23 13 -4 -25 -4 -24 -18 8 -13
31 -29 43 -29 21 0 -21 152 -299 163 -299 9 0 11 60 9 232 l-3 233 60 87 c58
82 75 118 49 102 -8 -5 -9 5 -5 34 6 52 -10 56 -18 5 -14 -86 -19 -100 -44
-135 -14 -21 -29 -38 -32 -38 -3 0 -5 76 -5 170 1 93 -2 170 -6 170 -5 0 -8
-63 -8 -141z"/>
<path d="M2830 1294 l0 -54 253 1 c215 2 238 3 155 10 -137 12 -290 44 -354
73 l-54 25 0 -55z"/>
<path d="M918 884 l-3 -229 -24 39 c-14 22 -27 34 -29 28 -2 -7 10 -34 26 -60
29 -44 31 -53 29 -135 -1 -48 1 -87 6 -87 4 0 7 7 7 16 0 16 68 130 167 280
53 81 72 133 31 84 l-21 -25 7 28 c3 15 2 27 -3 27 -5 0 -15 -24 -22 -52 -11
-47 -135 -268 -149 -268 -3 0 -7 84 -7 186 l-2 187 86 99 c47 54 83 101 80
104 -3 4 -18 -6 -32 -20 -23 -23 -26 -24 -20 -6 3 11 2 20 -4 20 -5 0 -13 -15
-17 -32 -8 -38 -72 -121 -86 -112 -5 3 -8 37 -7 75 1 38 -1 72 -4 76 -4 3 -8
-97 -9 -223z"/>
<path d="M2637 598 c-15 -46 -38 -99 -52 -118 l-26 -35 422 -3 c232 -1 425 0
427 3 3 3 -14 26 -38 50 -75 76 -267 139 -520 170 -199 24 -183 29 -213 -67z"/>
</g>
</svg>
