<?xml version="1.0" standalone="no"?>
<!DOCTYPE svg PUBLIC "-//W3C//DTD SVG 20010904//EN"
 "http://www.w3.org/TR/2001/REC-SVG-20010904/DTD/svg10.dtd">
<svg version="1.0" xmlns="http://www.w3.org/2000/svg"
 width="1280.000000pt" height="1280.000000pt" viewBox="0 0 1280.000000 1280.000000"
 preserveAspectRatio="xMidYMid meet">
<metadata>
Created by potrace 1.16, written by Peter Selinger 2001-2019
</metadata>
<g transform="translate(0.000000,1280.000000) scale(0.100000,-0.100000)"
fill="#000000" stroke="none">
<path d="M6000 11794 c-548 -47 -965 -151 -1449 -361 -573 -249 -1143 -680
-1556 -1178 -855 -1029 -1183 -2389 -888 -3685 140 -617 430 -1221 822 -1715
136 -170 519 -575 546 -575 4 0 116 109 248 243 379 383 1231 1237 1234 1237
2 0 339 -505 750 -1123 799 -1202 911 -1367 927 -1367 6 0 33 30 60 67 48 66
969 1393 1346 1938 102 149 341 493 530 765 189 272 438 631 552 797 115 167
213 305 219 308 5 4 80 -51 166 -121 87 -70 176 -142 199 -160 l41 -32 17 236
c10 130 29 379 42 552 50 648 54 713 50 717 -3 4 -85 -20 -486 -144 -63 -19
-142 -43 -175 -53 -33 -10 -103 -31 -155 -48 -52 -17 -207 -65 -345 -107 -137
-42 -255 -80 -262 -83 -7 -4 71 -73 189 -167 110 -88 204 -165 209 -171 6 -7
-34 -73 -114 -190 -68 -98 -364 -528 -657 -954 -294 -426 -562 -815 -596 -865
-34 -49 -159 -232 -278 -405 -120 -173 -290 -422 -379 -552 -89 -130 -165
-237 -168 -238 -3 0 -363 536 -799 1191 -437 654 -797 1192 -801 1195 -4 2
-359 -350 -789 -783 l-782 -788 -44 50 c-64 72 -193 255 -275 391 -351 577
-529 1215 -529 1891 0 364 36 643 124 965 382 1391 1533 2431 2951 2667 213
35 345 45 600 45 257 0 390 -10 600 -45 1317 -220 2404 -1130 2856 -2391 168
-468 247 -1045 209 -1515 -109 -1334 -912 -2487 -2128 -3056 -56 -27 -107 -47
-112 -45 -5 2 101 197 236 433 135 237 261 458 280 492 l35 62 -46 27 c-25 14
-48 25 -50 23 -2 -2 -54 -76 -116 -164 -165 -235 -1066 -1520 -1115 -1590 -23
-33 -44 -70 -48 -82 -4 -11 -13 -27 -21 -33 -62 -51 53 -41 400 37 776 174
1526 595 2090 1174 589 605 988 1362 1139 2164 60 317 77 506 77 835 0 455
-43 762 -166 1200 -248 876 -815 1689 -1570 2250 -605 450 -1306 725 -2085
820 -85 11 -675 21 -760 14z"/>
<path d="M7110 7858 c0 -2153 2 -2530 14 -2518 7 8 67 94 133 190 66 96 231
337 368 535 137 198 306 443 376 545 69 102 186 270 258 375 l131 190 0 1577
0 1577 -44 31 -45 30 -595 0 -596 0 0 -2532z"/>
<path d="M5380 7773 l0 -1358 633 -952 c347 -523 634 -952 637 -952 3 -1 4
1038 2 2309 l-2 2310 -635 0 -635 0 0 -1357z"/>
<path d="M3651 6453 l0 -878 635 640 634 640 0 238 0 237 -635 0 -635 0 1
-877z"/>
<path d="M4044 2800 c-41 -23 -58 -41 -78 -82 l-26 -52 0 -280 c0 -250 2 -285
19 -321 53 -117 202 -159 306 -87 62 43 87 97 93 203 l5 89 -72 0 -71 0 0 -69
c0 -38 -3 -77 -6 -86 -10 -24 -60 -46 -89 -39 -53 13 -55 26 -55 316 0 255 1
269 20 288 28 28 81 26 108 -3 18 -19 22 -35 22 -85 l0 -62 70 0 70 0 0 51 c0
151 -84 248 -215 249 -37 0 -63 -8 -101 -30z"/>
<path d="M2960 2805 c0 -8 34 -202 75 -431 41 -229 75 -418 75 -420 0 -2 40
-4 89 -4 l90 0 10 53 c11 55 127 690 140 770 l8 47 -68 0 c-38 0 -69 -3 -69
-6 0 -9 -55 -349 -85 -524 -12 -74 -25 -128 -28 -120 -3 8 -17 92 -32 185 -54
347 -66 421 -70 443 -5 20 -11 22 -70 22 -50 0 -65 -3 -65 -15z"/>
<path d="M3630 2385 l0 -435 65 0 65 0 0 435 0 435 -65 0 -65 0 0 -435z"/>
<path d="M4540 2385 l0 -435 65 0 65 0 0 185 0 185 80 0 80 0 0 -185 0 -185
65 0 65 0 0 435 0 435 -65 0 -65 0 0 -185 0 -185 -80 0 -80 0 0 185 0 185 -65
0 -65 0 0 -435z"/>
<path d="M5285 2808 c-2 -7 -13 -67 -24 -133 -11 -66 -43 -254 -70 -417 -28
-163 -51 -299 -51 -302 0 -3 29 -6 64 -6 74 0 70 -5 87 115 l12 85 72 0 71 0
15 -97 14 -98 68 -3 c37 -2 67 1 67 6 0 5 -23 142 -50 303 -28 162 -60 354
-72 427 l-21 132 -89 0 c-62 0 -90 -4 -93 -12z m114 -342 c29 -194 30 -186
-24 -186 -53 0 -52 -13 -25 170 11 74 20 141 20 149 0 38 10 -7 29 -133z"/>
<path d="M5936 2793 c-3 -16 -21 -122 -41 -238 -19 -115 -50 -299 -69 -407
l-33 -198 67 0 67 0 12 78 c21 132 14 122 91 122 78 0 68 14 90 -127 l12 -73
68 0 67 0 -8 48 c-4 26 -33 198 -64 382 -31 184 -60 359 -66 388 l-10 52 -89
0 -88 0 -6 -27z m139 -470 l6 -43 -52 0 -51 0 6 33 c3 17 13 84 21 147 9 63
19 122 22 130 3 8 14 -39 24 -105 10 -66 20 -139 24 -162z"/>
<path d="M6450 2385 l0 -435 65 0 65 0 0 165 0 165 44 0 44 0 32 -132 c52
-217 40 -198 120 -198 l68 0 -49 192 c-48 191 -49 192 -29 213 37 40 50 89 50
197 0 122 -11 167 -50 212 -40 45 -86 56 -234 56 l-126 0 0 -435z m258 289
c20 -14 22 -23 22 -116 0 -91 -2 -104 -22 -125 -17 -18 -32 -23 -75 -23 l-53
0 0 140 0 140 53 0 c31 0 61 -6 75 -16z"/>
<path d="M7070 2385 l0 -435 123 0 c140 0 181 13 234 73 51 59 55 85 51 389
l-3 276 -30 43 c-16 23 -50 53 -74 66 -40 21 -57 23 -173 23 l-128 0 0 -435z
m258 285 c22 -20 22 -26 22 -282 0 -255 -1 -262 -22 -285 -17 -18 -32 -23 -75
-23 l-53 0 0 305 0 305 53 0 c40 0 59 -5 75 -20z"/>
<path d="M7660 2385 l0 -435 65 0 65 0 0 185 0 185 80 0 80 0 0 -185 0 -185
65 0 65 0 0 435 0 435 -65 0 -65 0 0 -185 0 -185 -80 0 -80 0 0 185 0 185 -65
0 -65 0 0 -435z"/>
<path d="M8406 2793 c-3 -16 -21 -122 -41 -238 -19 -115 -50 -299 -69 -407
l-33 -198 67 0 67 0 12 73 c24 142 13 127 91 127 78 0 67 15 91 -127 l12 -73
69 0 c61 0 69 2 64 18 -5 16 -77 441 -117 687 -11 66 -22 130 -24 143 -5 21
-10 22 -94 22 l-89 0 -6 -27z m118 -325 c10 -73 20 -145 23 -160 5 -28 5 -28
-47 -28 -52 0 -52 0 -47 28 3 15 14 87 23 160 10 72 21 132 24 132 3 0 14 -60
24 -132z"/>
<path d="M8920 2385 l0 -435 65 0 65 0 0 165 0 165 44 0 44 0 37 -152 c21 -84
39 -158 42 -165 4 -9 27 -13 73 -13 l68 0 -49 192 c-48 190 -48 192 -29 213
37 40 50 89 50 197 0 122 -11 167 -50 212 -40 45 -86 56 -234 56 l-126 0 0
-435z m258 289 c20 -14 22 -23 22 -120 0 -129 -10 -144 -95 -144 l-55 0 0 140
0 140 53 0 c31 0 61 -6 75 -16z"/>
<path d="M9685 2808 c-2 -7 -17 -96 -34 -198 -17 -102 -49 -290 -71 -418 -22
-128 -40 -235 -40 -238 0 -2 31 -4 68 -4 l69 0 13 100 13 100 74 0 c52 0 73
-4 73 -12 1 -22 20 -152 26 -170 4 -15 17 -18 70 -18 35 0 64 4 64 8 0 4 -31
197 -70 427 -38 230 -70 423 -70 427 0 14 -180 10 -185 -4z m119 -367 l22
-161 -48 0 c-57 0 -55 -11 -28 170 11 73 20 139 20 148 0 8 2 13 6 10 3 -3 15
-78 28 -167z"/>
<path d="M5320 1291 l0 -211 25 0 25 0 0 108 c0 114 3 122 37 141 31 16 50 14
73 -9 18 -18 20 -33 20 -130 l0 -110 25 0 25 0 0 108 c0 132 -15 172 -72 186
-39 10 -96 -6 -100 -28 -1 -6 -4 25 -7 69 -6 73 -8 80 -28 83 l-23 3 0 -210z"/>
<path d="M6070 1490 c0 -5 0 -95 0 -200 0 -104 0 -194 0 -200 0 -5 9 -10 20
-10 18 0 20 7 20 53 0 39 5 58 18 70 17 15 21 12 70 -53 41 -55 58 -70 78 -70
29 0 31 -3 -44 98 l-53 73 50 57 c45 51 48 57 29 60 -15 3 -39 -15 -84 -59
l-64 -63 0 127 c0 120 -1 127 -20 127 -11 0 -20 -4 -20 -10z"/>
<path d="M6850 1290 c0 -203 1 -210 20 -210 19 0 20 7 20 105 0 99 2 107 25
130 27 28 62 32 91 11 16 -13 19 -29 22 -130 3 -106 5 -116 23 -116 18 0 19 8
19 119 0 66 -3 127 -6 136 -8 20 -56 45 -86 45 -13 0 -38 -9 -55 -20 l-33 -20
0 80 c0 73 -2 80 -20 80 -19 0 -20 -7 -20 -210z"/>
<path d="M7930 1420 l0 -71 -30 16 c-37 19 -63 19 -100 0 -78 -40 -89 -188
-20 -257 33 -32 91 -38 127 -13 19 13 22 13 27 0 3 -8 15 -15 26 -15 19 0 20
6 20 205 l0 205 -25 0 c-24 0 -25 -2 -25 -70z m-13 -101 c20 -17 18 -157 -4
-181 -18 -20 -64 -24 -93 -8 -49 26 -50 153 -2 191 28 21 71 21 99 -2z"/>
<path d="M4967 1474 c-4 -4 -7 -16 -7 -26 0 -16 9 -18 65 -18 l65 0 0 -176 0
-175 23 3 c22 3 22 5 25 175 l2 172 63 3 c54 3 62 5 62 23 0 19 -8 20 -146 23
-80 1 -148 -1 -152 -4z"/>
<path d="M6565 1373 c-21 -54 -55 -142 -76 -195 l-37 -98 27 0 c24 0 29 6 42
48 l15 47 85 3 86 3 21 -51 c17 -41 25 -50 45 -50 l25 0 -47 123 c-27 67 -60
155 -75 195 -23 61 -31 72 -51 72 -20 0 -28 -13 -60 -97z"/>
<path d="M5838 1362 c-30 -16 -38 -17 -38 -6 0 8 -9 14 -20 14 -19 0 -20 -7
-20 -145 l0 -145 25 0 25 0 0 115 0 114 30 16 c39 20 56 19 80 -5 18 -18 20
-33 20 -130 l0 -110 26 0 26 0 -4 125 c-3 109 -7 128 -24 146 -30 29 -82 34
-126 11z"/>
<path d="M7211 1362 c-52 -28 -73 -74 -69 -151 4 -58 7 -66 41 -97 31 -29 44
-34 85 -34 64 0 130 44 96 63 -10 6 -22 3 -34 -8 -10 -9 -35 -17 -56 -18 -28
-1 -42 5 -60 27 -13 15 -24 36 -24 47 0 17 8 19 68 20 37 1 79 1 95 1 25 -1
27 2 27 39 0 55 -25 98 -65 115 -45 18 -63 18 -104 -4z"/>
<path d="M7504 1366 c-29 -13 -64 -50 -64 -68 0 -17 41 -6 64 17 14 14 37 25
51 25 29 0 65 -32 65 -59 0 -16 -10 -20 -64 -26 -83 -8 -116 -35 -116 -94 0
-31 6 -44 26 -60 32 -25 94 -28 129 -5 23 15 25 15 25 0 0 -10 9 -16 25 -16
l25 0 -1 103 c-1 56 -4 113 -8 126 -15 53 -99 84 -157 57z"/>
</g>
</svg>
